<svg id="Layer_1" data-name="Layer 1" xmlns="http://www.w3.org/2000/svg" xmlns:xlink="http://www.w3.org/1999/xlink" viewBox="0 0 158.79 185.33"><defs><style>.cls-1,.cls-5,.cls-6,.cls-8{fill:none;}.cls-2{clip-path:url(#clip-path);}.cls-3{fill:#fff;}.cls-4{fill:#212c55;}.cls-5,.cls-6{stroke:#213b8a;}.cls-5{stroke-width:0.27px;}.cls-6{stroke-width:0.29px;}.cls-7{fill:#d1162e;}.cls-8{stroke:#dd2f34;stroke-width:0.28px;}</style><clipPath id="clip-path"><rect class="cls-1" width="158.79" height="185.33"/></clipPath></defs><title>stoke crest</title><g class="cls-2"><path class="cls-3" d="M156,126.21l-.06-.06-.06-.06-11.46-9.19a8.42,8.42,0,0,0-5.69-2.29h-.42a10.29,10.29,0,0,0-1.94.19,83.56,83.56,0,0,0,1.43-9.8c.22-2.5.34-5,.35-7.37v-.31c0-.22,0-.44,0-.65,0-.8,0-1.37,0-1.88V0H20.38V94.81c0,.51,0,1.07,0,1.88q0,.34,0,.72v.23c0,2.4.13,4.87.35,7.37a83.87,83.87,0,0,0,1.42,9.75,10.35,10.35,0,0,0-1.65-.14H20a8.41,8.41,0,0,0-5.69,2.29L2.88,126.09l-.06.06-.06.06a8.17,8.17,0,0,0-2.7,7c.65,5,6.18,8.4,6.8,8.77l1.51.88,1.37-1.07,3-2.59a3.17,3.17,0,0,1,2.63.67c.44.38,1.25,1.13,1.63,3.75l.2,1.35-1.64,1.41-1.73,1.5,1.3,1.89A75.46,75.46,0,0,0,22.26,159C37.5,176.19,57.11,185.28,79,185.33h1c21.68-.18,41.14-9.27,56.25-26.29a75.6,75.6,0,0,0,7.16-9.29l1.29-1.89-1.73-1.5-1.39-1.2.23-1.56c.38-2.62,1.19-3.37,1.63-3.75a3.17,3.17,0,0,1,2.63-.67l3,2.59,1.37,1.07,1.5-.88c.63-.37,6.16-3.74,6.81-8.77a8.17,8.17,0,0,0-2.7-7"/><path class="cls-4" d="M125.56,134.68a60.52,60.52,0,0,0,4.95-9.33,68.33,68.33,0,0,0,4.77-20.56c.21-2.42.33-4.82.34-7.16,0-.33,0-.64,0-.94,0-.68,0-1.27,0-1.79V2.56H22.94V94.9c0,.52,0,1.11,0,1.79,0,.3,0,.61,0,.94,0,2.33.13,4.74.34,7.16A68.33,68.33,0,0,0,28,125.34,60.89,60.89,0,0,0,33,134.68L17.22,148.3a72.88,72.88,0,0,0,7,9C38.92,173.92,57.87,182.72,79,182.76h1c20.94-.17,39.73-9,54.36-25.43a72.69,72.69,0,0,0,7-9Z"/><path class="cls-3" d="M79.35,7.74H28.12V95s-.83,15.45,4.69,28.43c0,0,13.12,33.49,46.36,33.49h.18c33.24,0,46.54-33.49,46.54-33.49,5.52-13,4.69-28.43,4.69-28.43V7.74Z"/><path class="cls-4" d="M71.3,138.78c0-1.81.53-2.75,1.58-2.75s1.56.87,1.56,2.75-.51,2.73-1.56,2.73-1.58-.89-1.58-2.73M74.88,142a3.27,3.27,0,0,0,2.3-3.4c0-2.44-1.48-3.79-4.17-3.79s-4.47,1.52-4.47,3.79a3.22,3.22,0,0,0,2.32,3.38v.17c-1.89.51-2.86,2-2.86,4.34,0,2.89,1.75,4.15,4.86,4.75s4.86-.89,4.86-3.83c0-2.13-1-4.8-2.85-5.26Zm-3.68,4.34c0-2.37.53-3.55,1.67-3.55s1.67,1.18,1.67,3.55-.59,3.52-1.67,3.52-1.67-1.13-1.67-3.52"/><path class="cls-4" d="M85.56,146.58c0,2.49-.49,3.73-1.48,3.73s-1.54-1.26-1.54-3.82c0-2.27.49-3.38,1.5-3.38s1.51,1.11,1.51,3.48m-3-4v-.07c0-3.95.82-6.24,2.61-6.24a2.44,2.44,0,0,1,2.09,1.43l.12-.05a22,22,0,0,1,.28-2.34,10.18,10.18,0,0,0-3.3-.57c-3.9,0-5.22,4.45-5.22,10.49,0,4.62,1.74,6.85,5,6.34,3-.46,4.77-2.12,4.77-5.65,0-2.89-1.42-4.59-3.64-4.59a3.17,3.17,0,0,0-2.7,1.26"/><path class="cls-4" d="M90.84,147.21a2.5,2.5,0,0,0,1.9,1.09c2.87-.12,2.53-4.64,2.53-4.64-.31-2.33-2.06-2-3.46-1.91-.24,0-.58,0-.79.09l.05-1.69a3.8,3.8,0,0,0,.47,0c1.52-.14,2.55-.59,2.83-2.09.17-.91,0-2.34-1.55-2.29-1.74,0-2,1.33-2.51,2l-.21-.11-.19-2c.9-1.08,3.18-1.23,3.18-1.23,2.34-.21,4.16,1.09,4.33,2.94.12,1.35-.37,1.91-2,2.69v.13c1.95-.11,2.71.53,3.16,1.89.73,2.2.5,7.85-9.11,8.29a5.88,5.88,0,0,0,1-3Z"/><path class="cls-5" d="M90.84,147.21a2.5,2.5,0,0,0,1.9,1.09c2.87-.12,2.53-4.64,2.53-4.64-.31-2.33-2.06-2-3.46-1.91-.24,0-.58,0-.79.09l.05-1.69a3.8,3.8,0,0,0,.47,0c1.52-.14,2.55-.59,2.83-2.09.17-.91,0-2.34-1.55-2.29-1.74,0-2,1.33-2.51,2l-.21-.11-.19-2c.9-1.08,3.18-1.23,3.18-1.23,2.34-.21,4.16,1.09,4.33,2.94.12,1.35-.37,1.91-2,2.69v.13c1.95-.11,2.71.53,3.16,1.89.73,2.2.5,7.85-9.11,8.29a5.88,5.88,0,0,0,1-3Z"/><path class="cls-4" d="M66.42,149.5a43.73,43.73,0,0,1-4-1.9,77.16,77.16,0,0,0,.42-8.66c0-.51,0-.87-.08-1.59-.77.31-.45,0-1.22.5l-.85-1.29a24.28,24.28,0,0,0,4.91-1.85l.39.21c-.06,4.14,0,6.44,0,7.78,0,1.7.22,4.44.37,6.13,0,.35.1.68.1.68"/><path class="cls-6" d="M66.42,149.5a43.73,43.73,0,0,1-4-1.9,77.16,77.16,0,0,0,.42-8.66c0-.51,0-.87-.08-1.59-.77.31-.45,0-1.22.5l-.85-1.29a24.28,24.28,0,0,0,4.91-1.85l.39.21c-.06,4.14,0,6.44,0,7.78,0,1.7.22,4.44.37,6.13C66.35,149.18,66.42,149.5,66.42,149.5Z"/><path class="cls-3" d="M63.92,168.46l.67-2.58.25-1c0-.08.09-.34.21-.78l.55.09c1.11.29,1.5,1.12,1.15,2.48-.44,1.69-1.25,2.16-2.83,1.75m-.3,1.2.55.16c2.77.72,4.47-.14,5.11-2.58.56-2.18-.34-3.38-2.67-4-1-.25-1.91-.39-2.78-.61a12,12,0,0,1-1.14-.39c-.4,2.16-.88,4.11-1.32,5.82-.4,1.53-.89,3.44-1.67,5.71.6.1,1.08.19,1.44.29s.84.25,1.4.45c.24-1.43.42-2.29.49-2.56Z"/><path class="cls-3" d="M74.13,170.64c0-3.23,1.23-5.07,3.14-5.07s3.13,1.8,3.14,5.06-1.27,5-3.13,5-3.15-1.78-3.15-5m-2.8.16c0,3.88,2.08,6,5.82,6s6.08-2.37,6.07-6.46c0-3.79-2.14-5.92-5.8-5.92s-6.09,2.31-6.08,6.37"/><path class="cls-3" d="M90,165.24c.1,1,.24,1.79.35,2.43l.12.7c.43,2.51.84,4.88,1.42,7.13-.68.06-1.18.11-1.46.16s-.85.18-1.43.33c-.2-2.16-.49-4.11-.8-5.89-.16-.95-.47-2.43-.86-4.42a18.31,18.31,0,0,0-2.72.68c0-.33,0-.65-.1-.9s-.1-.39-.19-.75c1.67-.22,3.05-.4,4.1-.58s2.35-.46,4-.82c0,.36.06.61.08.76s.11.56.2.88a18.58,18.58,0,0,0-2.77.27"/><path class="cls-3" d="M99.87,162.34c.26.94.54,1.73.75,2.34l.23.67c.84,2.4,1.63,4.67,2.57,6.8-.66.18-1.14.3-1.41.4s-.81.32-1.36.57c-.55-2.1-1.16-4-1.76-5.68-.32-.9-.86-2.32-1.57-4.21a18.12,18.12,0,0,0-2.57,1.12c-.08-.33-.15-.63-.24-.88s-.16-.37-.31-.71c1.61-.49,2.94-.9,4-1.25s2.25-.84,3.85-1.48c.09.36.16.59.21.74s.2.54.34.84a18.4,18.4,0,0,0-2.69.72"/><path class="cls-3" d="M107.54,164.86l-.58-1.05-.35-.64a49.89,49.89,0,0,0-2.69-4.49c1.31-.66,2.21-1.11,2.68-1.37.73-.4,1.68-1,2.82-1.64.13.31.23.55.32.72s.24.37.42.64c-.79.33-1.51.69-2.2,1.06-.3.17-.6.33-.87.5q.59,1.17,1.19,2.27l.44.81,2.89-1.77a7,7,0,0,0,.34.75c.08.14.23.35.44.67q-1.59.72-3,1.49l.91,1.67c.42.76.8,1.43,1.18,2a28.22,28.22,0,0,0,2.85-1.78c.13.3.25.54.35.74s.24.37.45.69c-1.58.81-2.74,1.4-3.44,1.79-.53.29-1.21.68-2,1.21a41,41,0,0,0-2.1-4.26"/><path class="cls-3" d="M116.8,156.62l-1.48-1.9c-.3-.38-.71-.91-1.18-1.58.17-.13.28-.2.32-.22a1.77,1.77,0,0,1,2.9.35c1,1.28.82,2.28-.51,3.32l0,0m1.9,6.74c.42-.39.76-.71,1-.93s.65-.47,1.14-.78c-.75-.81-1.45-1.65-2.13-2.54l-1.4-1.8a42.11,42.11,0,0,1,5.73,2.63c.43-.4.81-.74,1.15-1s.77-.55,1.38-1c-1.76-.62-3.87-1.45-6.35-2.59a2.65,2.65,0,0,0,.1-3.79c-1.34-1.72-2.79-1.74-4.63-.3-.89.7-1.63,1.43-2.38,2-.28.22-.61.43-1,.67,1.52,1.64,2.76,3.21,3.82,4.58l.38.48c.91,1.17,2,2.57,3.12,4.33"/><path class="cls-3" d="M125.63,152.87l.17-.2c1.3.79,2.34.72,3.21-.27a1.68,1.68,0,0,0,0-2.57c-.77-.68-1.53-.4-2.9.13-2,.76-3.22,1-4.67-.21-1.67-1.48-1.82-3.53-.13-5.45a5.13,5.13,0,0,1,2.38-1.59,17.22,17.22,0,0,0,1.31,2l-.12.14c-1.24-.52-2.12-.41-2.83.39a1.55,1.55,0,0,0,0,2.31c.77.68,1.55.25,3.11-.35,1.83-.68,3-1,4.54.3,1.83,1.61,1.9,3.83,0,5.95a6.4,6.4,0,0,1-2.25,1.68c-.65-.82-1.27-1.57-1.83-2.25"/><path class="cls-3" d="M36.45,146.14c-.74.64-1.34,1.22-1.8,1.67l-.51.5c-1.82,1.77-3.55,3.45-5.08,5.2-.44-.52-.76-.9-1-1.11s-.63-.6-1.09-1c1.67-1.39,3.11-2.73,4.41-4,.69-.67,1.74-1.76,3.16-3.21a19,19,0,0,0-2.1-1.86,8.87,8.87,0,0,0,.69-.59c.11-.11.27-.3.51-.58,1.12,1.26,2.06,2.29,2.8,3.05s1.71,1.68,3,2.87c-.29.23-.47.39-.58.5s-.4.41-.62.67a18.26,18.26,0,0,0-1.79-2.14"/><path class="cls-3" d="M37,154.23l.43-.53c1.1-1.33,2.35-2.88,3.65-4.71.45.46.78.8,1,1a14.43,14.43,0,0,0,1.21.84c-.66.68-1.27,1.37-1.86,2.08l-1.21,1.47c.75.66,1.26,1.12,1.53,1.35.49.4,1.08.85,1.75,1.35l1.21-1.47c.59-.72,1.14-1.46,1.68-2.24.47.48.82.83,1.06,1a13.77,13.77,0,0,0,1.18.81c-1.53,1.62-2.8,3.14-3.92,4.5l-.43.52c-.9,1.09-2,2.45-3.21,4.17-.42-.41-.76-.74-1-1s-.69-.52-1.19-.86c.61-.63,1.19-1.26,1.74-1.93l2-2.39c-.64-.58-1.21-1.07-1.67-1.45s-.86-.68-1.61-1.26l-2,2.4c-.55.67-1.07,1.35-1.57,2.07-.43-.42-.78-.76-1.08-1s-.68-.51-1.15-.84c1.46-1.53,2.58-2.87,3.48-4"/><path class="cls-3" d="M47.79,163.13l.57-1.06.35-.64a49.52,49.52,0,0,0,2.31-4.7c1.27.75,2.13,1.25,2.61,1.51.73.4,1.72.89,2.91,1.47-.18.27-.34.49-.43.66s-.18.4-.31.71a23.65,23.65,0,0,0-2.09-1.27c-.3-.16-.6-.32-.89-.46q-.66,1.13-1.26,2.23l-.44.82,3.05,1.47a6.31,6.31,0,0,0-.44.69c-.08.14-.17.38-.33.73q-1.47-.94-2.9-1.75l-.9,1.67c-.42.76-.77,1.45-1,2.08a28.32,28.32,0,0,0,3,1.43c-.18.28-.32.5-.43.7s-.18.4-.34.75c-1.54-.89-2.67-1.54-3.37-1.92-.53-.29-1.23-.65-2.11-1a41.28,41.28,0,0,0,2.43-4.08"/><path class="cls-7" d="M54.31,29.39V16.93a19.86,19.86,0,0,0-7.23,1.78l1.48-4.62H66.91l-2,4.1a12.45,12.45,0,0,0-5.43-1.26V29.39a12.21,12.21,0,0,0,1.05,5.38h-7.3a12.23,12.23,0,0,0,1.05-5.38"/><path class="cls-7" d="M89.67,29.39V19.47a12.22,12.22,0,0,0-1.05-5.38h7.3a12.22,12.22,0,0,0-1.05,5.38v4l6.31-7.16a3.09,3.09,0,0,0,1-2c0-.08,0-.17,0-.25h8.15a22,22,0,0,0-4.44,3.36l-5.43,5.87L107.75,32a25.47,25.47,0,0,0,2.86,2.76h-8.15a5.82,5.82,0,0,0,.06-.71,3.47,3.47,0,0,0-1-2.27l-6.64-8v5.57a12.23,12.23,0,0,0,1.05,5.38h-7.3a12.23,12.23,0,0,0,1.05-5.38"/><path class="cls-7" d="M112.62,29.39V19.47a12.18,12.18,0,0,0-1.05-5.38h14.11l-2.34,4a16.41,16.41,0,0,0-5.52-.93v5.71h7.14l-2.66,3.74a7.59,7.59,0,0,0-4-.9h-.46v5.93c.69,0,1.38.06,2,.06a21.68,21.68,0,0,0,7.49-1.09l-2,4.13H111.56a12.19,12.19,0,0,0,1.05-5.38"/><path class="cls-7" d="M63.85,41.48A4.57,4.57,0,0,0,59,46.29c0,3,2.09,4.89,5.22,4.89a5.39,5.39,0,0,0,4.25-1.85L68,52.47a13.5,13.5,0,0,1-4.79.85A8.66,8.66,0,0,1,58.34,52a6,6,0,0,1-2.94-5.21,6.82,6.82,0,0,1,3-5.67,10.45,10.45,0,0,1,6.08-1.83,13.91,13.91,0,0,1,3.7.55v3.43a6.57,6.57,0,0,0-4.35-1.78"/><path class="cls-8" d="M63.85,41.48A4.57,4.57,0,0,0,59,46.29c0,3,2.09,4.89,5.22,4.89a5.39,5.39,0,0,0,4.25-1.85L68,52.47a13.5,13.5,0,0,1-4.79.85A8.66,8.66,0,0,1,58.34,52a6,6,0,0,1-2.94-5.21,6.82,6.82,0,0,1,3-5.67,10.45,10.45,0,0,1,6.08-1.83,13.91,13.91,0,0,1,3.7.55v3.43A6.57,6.57,0,0,0,63.85,41.48Z"/><path class="cls-7" d="M71.11,49.58V43a8.36,8.36,0,0,0-.68-3.58h4.69A8.38,8.38,0,0,0,74.44,43v6.59a8.37,8.37,0,0,0,.68,3.58H70.43a8.36,8.36,0,0,0,.68-3.58"/><path class="cls-8" d="M71.11,49.58V43a8.36,8.36,0,0,0-.68-3.58h4.69A8.38,8.38,0,0,0,74.44,43v6.59a8.37,8.37,0,0,0,.68,3.58H70.43A8.36,8.36,0,0,0,71.11,49.58Z"/><path class="cls-7" d="M81,49.58V41.29a12.45,12.45,0,0,0-4.65,1.18l1-3.07H89.09l-1.27,2.72a7.8,7.8,0,0,0-3.49-.84v8.28A8.34,8.34,0,0,0,85,53.16H80.32A8.36,8.36,0,0,0,81,49.58"/><path class="cls-8" d="M81,49.58V41.29a12.45,12.45,0,0,0-4.65,1.18l1-3.07H89.09l-1.27,2.72a7.8,7.8,0,0,0-3.49-.84v8.28A8.34,8.34,0,0,0,85,53.16H80.32A8.36,8.36,0,0,0,81,49.58Z"/><path class="cls-7" d="M99.4,53.16H94.71a8.39,8.39,0,0,0,.67-3.58V46.73l-3.53-5A20.74,20.74,0,0,0,90,39.41h4.67a1.42,1.42,0,0,0,0,.31,1.58,1.58,0,0,0,.23.87l2.39,3.54,2-3.29a2,2,0,0,0,.29-1,3.13,3.13,0,0,0,0-.42h4.27a12.07,12.07,0,0,0-2,2.34l-3,4.42v3.41a8.34,8.34,0,0,0,.68,3.58"/><path class="cls-8" d="M99.4,53.16H94.71a8.39,8.39,0,0,0,.67-3.58V46.73l-3.53-5A20.74,20.74,0,0,0,90,39.41h4.67a1.42,1.42,0,0,0,0,.31,1.58,1.58,0,0,0,.23.87l2.39,3.54,2-3.29a2,2,0,0,0,.29-1,3.13,3.13,0,0,0,0-.42h4.27a12.07,12.07,0,0,0-2,2.34l-3,4.42v3.41A8.34,8.34,0,0,0,99.4,53.16Z"/><path class="cls-7" d="M87.24,24.46C87.24,31.29,82.42,35,76.46,35S65.69,31.48,65.69,24.46a10.78,10.78,0,0,1,21.55,0m-10.79-8c-3.34,0-4.89,3.87-4.89,7.94s1.55,7.93,4.89,7.93,4.89-3.87,4.89-7.93-1.55-7.94-4.89-7.94"/><path class="cls-7" d="M44.83,24.2c-.72-.51-2.46-1.34-4.49-2.5-1.61-.93-2.83-1.71-2.79-2.83s1.13-2.26,3-2.19a7.71,7.71,0,0,1,5.32,3.1l-.07-5.17a15.19,15.19,0,0,0-4-.65c-5.62-.19-9.09,2.15-9.23,5.84C32.5,22.17,34,23.7,37,25.33c2.64,1.48,4.88,2.14,4.95,4-.05,1.35-1.31,2.52-3.26,2.45s-4-1.44-5.53-3.43l.06,5.82a17.31,17.31,0,0,0,4.53.74c5.87.2,9.43-2.43,9.58-6.58a4.91,4.91,0,0,0-2.45-4.12"/><path class="cls-7" d="M144,126.53c2.14-2.25.09-6,.09-6s-1.86-3.48-5.59-3.31a8.22,8.22,0,0,0-2.76.45,60,60,0,0,1-2.83,8.57h0a60.53,60.53,0,0,1-4.1,8l1.41,1.22,9.06,7.82c1.12-7.68,5.43-5.8,5.43-5.8l-10.17-8.1c7.74-.3,9.47-2.8,9.47-2.8"/><path class="cls-4" d="M146.41,121.16s3.86,8.26-7.84,9.13l12.06,9.45s9.67-5.65,3.58-11.72Z"/><path class="cls-7" d="M14.69,126.64c-2.14-2.24-.09-6-.09-6s1.85-3.48,5.59-3.31a8.28,8.28,0,0,1,2.76.45,60,60,0,0,0,2.83,8.57h0a60.54,60.54,0,0,0,4.1,8l-1.41,1.22-9.06,7.82c-1.12-7.68-5.43-5.8-5.43-5.8l10.17-8.1c-7.74-.3-9.46-2.8-9.46-2.8"/><path class="cls-4" d="M12.28,121.26s-3.86,8.26,7.84,9.13L8.06,139.84s-9.67-5.65-3.58-11.72Z"/><rect class="cls-7" x="69.84" y="57.33" width="18.91" height="73.93"/><path class="cls-7" d="M106.56,141.23a51.62,51.62,0,0,0,4.29-4.26,58.27,58.27,0,0,0,10-15.45l0-.07,0-.06c3.89-9.16,4.32-19.94,4.32-24.24,0-1.18,0-1.87,0-1.9V39.13H106.56Z"/><path class="cls-7" d="M52,141.23A52.07,52.07,0,0,1,47.66,137a58.28,58.28,0,0,1-10-15.45l0-.07,0-.06c-3.89-9.16-4.32-19.94-4.32-24.24,0-1.18,0-1.87,0-1.9V39.13H52Z"/></g></svg>